<?xml version="1.0" standalone="no"?>
<!DOCTYPE svg PUBLIC "-//W3C//DTD SVG 20010904//EN" "http://www.w3.org/TR/2001/REC-SVG-20010904/DTD/svg10.dtd">
<!-- Created using Krita: http://krita.org -->
<svg xmlns="http://www.w3.org/2000/svg" 
    xmlns:xlink="http://www.w3.org/1999/xlink"
    xmlns:krita="http://krita.org/namespaces/svg/krita"
    xmlns:sodipodi="http://sodipodi.sourceforge.net/DTD/sodipodi-0.dtd"
    width="384pt"
    height="288pt"
    viewBox="0 0 384 288">
<defs/>
<path id="shape0" transform="translate(76.62, 3.06255)" fill="#00ffff" fill-rule="evenodd" stroke="#000000" stroke-width="0.72" stroke-linecap="square" stroke-linejoin="bevel" d="M77.62 21.6673L0 66.4163L0.0225 200.331L115.833 265.986L115.856 258.215L5.6318 194.147L6.2402 146.101L6.2582 146.07L6.3122 145.976L6.4021 145.819L6.528 145.599L6.6898 145.317L6.8877 144.972L7.1215 144.565L7.3912 144.095L7.6969 143.562L8.0387 142.966L8.4163 142.308L8.83 141.586L9.2796 140.803L9.7651 139.956L10.2867 139.047L10.8442 138.075L11.4377 137.04L12.0671 135.943L12.7326 134.783L13.434 133.56L14.1713 132.275L14.9446 130.927L15.7539 129.516L16.5992 128.043L17.4804 126.506L18.3976 124.907L19.3508 123.246L20.3399 121.521L21.365 119.734L22.4261 117.885L23.523 115.972L24.656 113.997L25.825 111.959L27.03 109.859L28.271 107.695L29.548 105.469L30.861 103.181L32.21 100.829L33.594 98.4154L35.015 95.9394L36.472 93.3999L37.965 90.7977L39.493 88.1328L41.058 85.4051L42.659 82.6149L44.295 79.7619L45.968 76.8462L47.676 73.8678L49.421 70.8267L51.201 67.7228L53.017 64.5563L54.87 61.3272L56.758 58.0352L58.683 54.6806L60.643 51.2632L62.639 47.7832L64.671 44.2405L66.74 40.635L68.844 36.9669L70.984 33.2361L73.16 29.4425L75.372 25.5864L77.62 21.6673M114.564 0L114.564 8.13915L224.868 71.472L224.677 119.925L152.672 244.683L230.715 199.697L230.76 66.068L230.731 66.0513L230.643 66.0014L230.497 65.9181L230.292 65.8016L230.028 65.6518L229.706 65.4688L229.325 65.2523L228.886 65.0027L228.389 64.7197L227.832 64.4034L227.218 64.0538L226.544 63.671L225.812 63.2549L225.022 62.8054L224.173 62.3226L223.265 61.8067L222.299 61.2572L221.275 60.6746L220.191 60.0587L219.05 59.4095L217.849 58.727L216.59 58.0114L215.273 57.2623L213.897 56.4798L212.463 55.6642L210.969 54.8152L209.418 53.9331L207.808 53.0174L206.139 52.0686L204.412 51.0865L202.626 50.0711L200.781 49.0224L198.879 47.9404L196.917 46.8252L194.897 45.6765L192.818 44.4947L190.681 43.2796L188.486 42.0311L186.231 40.7493L183.918 39.4343L181.547 38.0861L179.117 36.7043L176.629 35.2894L174.082 33.8412L171.476 32.3597L168.812 30.8449L166.089 29.2969L163.308 27.7156L160.468 26.1009L157.57 24.453L154.613 22.7717L151.598 21.0572L148.524 19.3094L145.391 17.5282L142.2 15.7137L138.951 13.866L135.642 11.985L132.276 10.0708L128.85 8.12325L125.367 6.14236L121.824 4.1282L118.223 2.08074L114.564 0M74.4 63.1774L75.747 62.6068L76.393 62.4342L77.047 62.2609L77.711 62.0868L78.383 61.9119L79.065 61.736L79.756 61.5594L80.456 61.382L81.167 61.2036L81.887 61.0245L82.618 60.8443L83.36 60.6632L84.112 60.4813L84.875 60.2985L85.649 60.1148L86.434 59.9299L87.231 59.7443L88.04 59.5575L88.86 59.3698L89.693 59.1811L90.538 58.9915L91.396 58.8008L92.267 58.609L93.151 58.4162L94.048 58.2222L94.958 58.0273L95.882 57.8314L96.82 57.6341L97.772 57.4359L98.738 57.2366L99.719 57.036L100.714 56.8344L101.725 56.6317L102.75 56.4276L103.791 56.2224L104.848 56.0161L105.92 55.8085L107.008 55.5998L108.112 55.3897L109.233 55.1784L110.371 54.9659L111.525 54.7522L112.696 54.5371L113.885 54.3207L115.091 54.103L116.314 53.8841L117.556 53.6638L118.815 53.4421L120.093 53.219L121.39 52.9947L122.705 52.7689L124.039 52.5418L125.392 52.3132L126.765 52.0832L128.157 51.8518L129.569 51.6191L131.001 51.3847L132.453 51.149L133.925 50.9119L135.419 50.673L136.933 50.4329L138.468 50.1912L140.024 49.9479L141.532 49.7702L143.029 49.7015L144.505 49.7336L145.951 49.8582L147.358 50.0669L148.715 50.3513L150.014 50.7032L151.245 51.114L152.398 51.5755L153.464 52.0795L154.433 52.6174L155.296 53.1808L156.043 53.7616L156.665 54.3513L157.152 54.9416L157.495 55.5242L157.684 56.0907L158.166 58.6061L158.605 60.8928L159.002 62.9625L159.36 64.8269L159.681 66.4978L159.967 67.9868L160.221 69.3054L160.444 70.4656L160.64 71.4791L160.809 72.3573L160.955 73.1123L161.079 73.7553L161.184 74.2985L161.272 74.7533L161.345 75.1316L161.405 75.4449L161.456 75.7049L161.498 75.9235L161.534 76.1123L161.566 76.2828L161.597 76.4471L161.629 76.6165L161.663 76.8028L161.703 77.0179L161.75 77.2733L161.807 77.5808L161.875 77.9522L161.958 78.3988L162.056 78.9327L162.174 79.5654L162.312 80.3088L162.473 81.1743L162.659 82.1737L162.872 83.3188L163.115 84.6213L163.389 86.0928L163.698 87.7451L164.043 89.5898L164.426 91.6388L164.85 93.9034L165.317 96.3957L165.572 97.9295L165.786 99.3845L165.958 100.764L166.084 102.076L166.163 103.323L166.191 104.511L166.166 105.644L166.085 106.726L165.945 107.764L165.744 108.76L165.478 109.721L165.147 110.651L164.745 111.555L164.272 112.437L163.724 113.302L163.099 114.156L162.394 115.003L161.606 115.847L160.733 116.693L159.771 117.547L158.719 118.413L157.574 119.296L156.332 120.2L154.992 121.13L153.614 122.067L152.297 122.961L151.04 123.815L149.839 124.63L148.692 125.408L147.596 126.151L146.549 126.86L145.549 127.538L144.591 128.185L143.675 128.805L142.797 129.398L141.954 129.966L141.144 130.512L140.365 131.036L139.614 131.541L138.888 132.029L138.184 132.5L137.5 132.958L136.834 133.403L136.183 133.838L135.543 134.264L134.913 134.683L134.29 135.097L133.672 135.508L133.055 135.916L132.437 136.325L131.815 136.736L131.187 137.15L130.551 137.57L129.903 137.997L129.241 138.432L128.563 138.879L127.865 139.338L127.146 139.811L126.402 140.3L125.631 140.807L124.83 141.333L123.997 141.881L123.13 142.451L122.224 143.047L121.279 143.669L120.291 144.319L119.257 145L118.176 145.712L117.044 146.458L115.859 147.24L114.618 148.058L113.318 148.916L111.958 149.814L110.534 150.755L109.044 151.74L107.485 152.771L105.854 153.849L104.149 154.978L102.368 156.157L100.507 157.39L99.509 158.051L98.488 158.728L97.443 159.42L96.376 160.127L95.286 160.85L94.171 161.59L93.033 162.346L91.871 163.119L89.969 164.933L88.961 166.496L88.637 167.84L88.791 168.993L89.216 169.985L89.704 170.847L90.048 171.608L87.282 173.3L84.979 174.7L83.094 175.836L81.583 176.736L80.402 177.429L79.505 177.942L78.85 178.304L78.391 178.544L78.084 178.688L77.885 178.766L77.75 178.805L77.633 178.834L77.492 178.881L77.28 178.974L76.955 179.141L76.472 179.411L75.786 179.811L74.853 180.371L73.628 181.117L72.068 182.078L70.128 183.283L67.763 184.76L67.43 184.293L66.995 183.676L66.474 182.924L65.886 182.051L65.246 181.072L64.572 180.002L63.882 178.855L63.192 177.646L62.519 176.39L61.881 175.1L61.295 173.792L60.777 172.48L60.345 171.179L60.27 170.43L60.198 169.686L60.142 168.941L60.113 168.19L60.122 167.428L60.18 166.65L60.3 165.852L60.493 165.027L60.77 164.171L61.143 163.28L61.623 162.347L62.221 161.368L62.95 160.338L63.82 159.252L64.844 158.104L66.032 156.89L67.396 155.605L68.948 154.244L70.699 152.801L72.66 151.272L74.843 149.652L77.26 148.029L79.527 146.507L81.65 145.081L83.635 143.749L85.488 142.505L87.214 141.346L88.819 140.269L90.309 139.269L91.69 138.343L92.967 137.486L94.147 136.695L95.234 135.966L96.235 135.295L97.155 134.679L98 134.113L98.776 133.593L99.489 133.116L100.144 132.678L100.747 132.274L101.304 131.902L101.82 131.557L102.302 131.235L103.184 130.647L103.596 130.372L103.997 130.105L104.785 129.579L105.185 129.313L105.595 129.039L106.023 128.754L106.474 128.453L106.953 128.134L107.466 127.791L108.019 127.422L108.618 127.021L109.268 126.587L109.976 126.114L110.746 125.598L111.585 125.037L112.499 124.425L113.492 123.76L114.572 123.036L115.743 122.252L117.012 121.402L118.383 120.482L119.864 119.489L121.459 118.42L123.175 117.269L125.232 115.787L127.087 114.509L128.747 113.404L130.221 112.437L131.517 111.574L132.644 110.784L133.611 110.031L134.427 109.283L135.099 108.506L135.637 107.666L136.048 106.731L136.342 105.666L136.528 104.439L136.613 103.015L136.606 101.361L136.168 98.8965L135.81 96.8927L135.523 95.2977L135.299 94.06L135.129 93.1275L135.003 92.4488L134.913 91.9715L134.849 91.644L134.804 91.4145L134.767 91.2309L134.731 91.0416L134.685 90.7944L134.622 90.4377L134.532 89.9194L134.407 89.1878L134.237 88.1911L134.013 86.8772L133.727 85.1942L133.37 83.0905L132.932 80.5142L132.494 79.108L131.931 77.9359L131.252 76.9804L130.465 76.2244L129.579 75.6504L128.602 75.2412L127.543 74.9793L126.409 74.8477L125.21 74.8286L123.954 74.9051L122.65 75.0597L121.305 75.275L119.929 75.5336L118.53 75.8186L117.97 75.9331L117.37 76.0537L116.73 76.1806L116.051 76.3141L115.336 76.4545L114.586 76.6022L113.803 76.7575L112.987 76.9206L112.141 77.0921L111.265 77.272L110.362 77.4607L109.432 77.6585L108.478 77.8658L107.501 78.0829L106.501 78.3101L105.482 78.5477L104.444 78.7961L103.389 79.0555L102.318 79.3264L101.232 79.6088L100.134 79.9032L99.025 80.2099L97.906 80.5293L96.778 80.8618L95.644 81.2073L94.505 81.5665L93.361 81.9395L92.215 82.3268L91.069 82.7287L89.923 83.1453L88.779 83.577L87.639 84.0243L86.504 84.4873L85.376 84.9665L84.256 85.4621L83.145 85.9745L82.045 86.5038L80.958 87.0506L79.885 87.615L78.828 88.1975L77.788 88.7982L76.766 89.4176L75.764 90.0559L75.308 90.3625L74.812 90.7108L74.281 91.1L73.716 91.5296L73.12 91.9985L72.494 92.5062L71.841 93.052L71.164 93.6351L70.464 94.2549L69.744 94.9107L69.006 95.6016L68.253 96.3269L67.487 97.0864L66.709 97.8785L65.923 98.7024L65.13 99.5594L64.333 100.446L63.534 101.363L62.736 102.31L61.94 103.285L61.149 104.289L60.365 105.32L59.591 106.377L58.829 107.461L58.08 108.569L57.348 109.702L56.635 110.859L55.942 112.039L55.273 113.241L54.629 114.465L54.013 115.709L53.427 116.974L52.873 118.258L52.353 119.561L51.871 120.882L51.427 122.22L51.025 123.575L50.667 124.946L50.355 126.331L50.09 127.732L49.877 129.146L49.716 130.572L49.61 132.012L49.562 133.462L49.523 133.46L49.437 133.273L49.307 132.914L49.138 132.396L48.934 131.73L48.701 130.93L48.442 130.009L48.163 128.979L47.867 127.852L47.56 126.642L47.246 125.36L46.93 124.021L46.616 122.636L46.309 121.217L46.013 119.779L45.733 118.332L45.474 116.891L45.24 115.467L45.036 114.073L74.397 63.1809L74.4 63.1774M164.125 156.024L177.047 168.191L164.977 189.001L69.684 218.993L69.554 219.054L69.478 219.081L69.453 219.073L69.481 219.031L69.562 218.955L69.696 218.845L69.881 218.701L70.12 218.522L70.411 218.309L70.754 218.062L71.15 217.781L71.599 217.465L72.1 217.116L72.653 216.732L73.259 216.314L73.918 215.862L74.629 215.375L75.393 214.854L76.209 214.3L77.077 213.71L77.999 213.087L78.973 212.43L79.999 211.738L81.078 211.012L82.209 210.252L83.393 209.458L84.629 208.629L85.918 207.767L87.26 206.87L88.654 205.939L90.1 204.973L91.599 203.974L93.151 202.94L94.755 201.872L96.412 200.77L98.121 199.634L99.883 198.463L101.697 197.258L103.564 196.019L105.483 194.746L107.455 193.439L109.479 192.097L111.556 190.722L113.686 189.312L115.868 187.868L118.102 186.389L120.389 184.877L122.729 183.33L125.121 181.749L127.565 180.134L130.062 178.484L132.612 176.801L135.214 175.083L137.869 173.331L140.576 171.545L143.336 169.725L146.148 167.87L149.013 165.981L151.931 164.058L154.901 162.101L157.923 160.11L160.998 158.084L164.125 156.024"/>
</svg>
